<?xml version="1.0" standalone="no"?>
<!DOCTYPE svg PUBLIC "-//W3C//DTD SVG 1.1//EN" "http://www.w3.org/Graphics/SVG/1.1/DTD/svg11.dtd" >
<svg xmlns="http://www.w3.org/2000/svg" xmlns:xlink="http://www.w3.org/1999/xlink" version="1.1">
<metadata></metadata>
<defs>
<font id="cera_prolight" horiz-adv-x="1603" >
<font-face units-per-em="2048" ascent="1638" descent="-410" />
<missing-glyph horiz-adv-x="573" />
<glyph unicode="&#xfb01;" horiz-adv-x="1095" d="M63 895v94h144v271q0 149 79 222.5t220 73.5q60 0 112 -12v-90q-41 8 -94 8q-215 0 -215 -207v-266h260v-94h-260v-895h-102v895h-144zM764 1370q0 37 26.5 63.5t63.5 26.5q55 3 78 -43.5t0 -93t-78 -43.5q-37 0 -63.5 26.5t-26.5 63.5zM803 0v989h102v-989h-102z" />
<glyph unicode="&#xfb02;" horiz-adv-x="1095" d="M63 895v94h144v271q0 149 79 222.5t220 73.5q60 0 112 -12v-90q-41 8 -94 8q-215 0 -215 -207v-266h260v-94h-260v-895h-102v895h-144zM803 0v1536h102v-1536h-102z" />
<glyph horiz-adv-x="0" />
<glyph horiz-adv-x="682" />
<glyph unicode=" "  horiz-adv-x="573" />
<glyph unicode="&#x09;" horiz-adv-x="573" />
<glyph unicode="&#xa0;" horiz-adv-x="573" />
<glyph unicode="!" horiz-adv-x="583" d="M190 78q-3 63 49 89t104 0t50 -89q0 -42 -30 -70t-72 -28t-71.5 28t-29.5 70zM227 1352h127l-18 -955h-88z" />
<glyph unicode="&#x22;" horiz-adv-x="880" d="M205 846l35 506h125l-76 -506h-84zM530 846l35 506h125l-76 -506h-84z" />
<glyph unicode="#" horiz-adv-x="1189" d="M61 420v92h203l43 328h-201v92h213l58 420h94l-57 -420h432l55 420h94l-57 -420h190v-92h-202l-45 -328h202v-92h-215l-57 -420h-90l55 420h-432l-57 -420h-92l57 420h-191zM356 512h432l46 328h-433z" />
<glyph unicode="$" horiz-adv-x="1095" d="M90 328l80 55q127 -214 324 -238v523l-29 12q-112 49 -189 113q-90 81 -90 204q0 122 85.5 201.5t222.5 97.5v242h104v-240q207 -18 330 -211l-74 -57q-108 153 -256 168v-469l61 -27q147 -67 219 -144t72 -189q0 -135 -98 -223.5t-254 -100.5v-233h-104v235 q-259 27 -404 281zM295 1001q0 -80 45.5 -126.5t153.5 -98.5v420q-91 -14 -145 -63t-54 -132zM598 143q111 11 177.5 70t66.5 154q0 83 -53 136t-177 111l-14 7v-478z" />
<glyph unicode="%" horiz-adv-x="1640" d="M113 1047q0 137 94 231t233 94q138 0 232 -94q96 -96 96 -231q0 -136 -96 -232q-94 -94 -232 -94q-139 0 -233 94t-94 232zM207 1047q0 -102 65 -173q66 -69 168 -69q103 0 166 69q68 71 68 173q0 101 -68 172q-63 69 -166 69q-102 0 -168 -69q-65 -71 -65 -172zM385 0 l776 1352h99l-779 -1352h-96zM872 307q0 135 97 232q94 94 231 94q138 0 232 -94q96 -96 96 -232q0 -135 -96 -231q-94 -94 -232 -94q-137 0 -231 94q-97 97 -97 231zM969 307q0 -103 65 -174q64 -67 166 -67q103 0 166 69q68 71 68 172t-68 172q-64 70 -166 70t-166 -70 q-65 -68 -65 -172z" />
<glyph unicode="&#x26;" horiz-adv-x="1236" d="M106 319q0 84 39 157.5t105.5 134.5t179.5 139q-160 195 -160 340q0 122 76.5 202t204.5 80q125 0 202.5 -75.5t77.5 -190.5q0 -98 -63.5 -185t-194.5 -186l330 -393q14 19 205 309l86 -55q-180 -279 -223 -334l221 -262h-131l-154 184q-180 -204 -401 -204 q-167 0 -283 94q-117 94 -117 245zM215 330q0 -111 84 -183q85 -67 207 -67q180 0 336 182l-350 416q-99 -73 -152 -119q-51 -44 -88 -105.5t-37 -123.5zM375 1090q0 -69 31.5 -130.5t107.5 -154.5q213 157 213 299q0 76 -46 123t-130 47t-130 -50t-46 -134z" />
<glyph unicode="'" horiz-adv-x="557" d="M205 846l35 506h125l-76 -506h-84z" />
<glyph unicode="(" horiz-adv-x="661" d="M170 614q0 408 127 619q59 101 122 163.5t140 100.5l43 -74q-330 -194 -330 -809q0 -341 95 -536q94 -191 235 -273l-43 -73q-163 78 -278 291q-111 212 -111 591z" />
<glyph unicode=")" horiz-adv-x="661" d="M59 -195q140 81 234 273q96 197 96 536q0 615 -330 809l45 74q157 -77 261 -264q127 -211 127 -619q0 -407 -127 -618q-104 -187 -261 -264z" />
<glyph unicode="*" horiz-adv-x="786" d="M102 1092l197 127l-197 129l35 61l209 -109l12 236h70l12 -236l209 109l37 -61l-199 -129l199 -127l-37 -62l-209 109l-12 -236h-70l-12 236l-209 -109z" />
<glyph unicode="+" horiz-adv-x="1146" d="M127 592v92h397v406h103v-406h391v-92h-391v-408h-103v408h-397z" />
<glyph unicode="," horiz-adv-x="552" d="M195 -369l34 523h127l-73 -523h-88z" />
<glyph unicode="-" horiz-adv-x="702" d="M117 592v90h467v-90h-467z" />
<glyph unicode="." horiz-adv-x="552" d="M176 78q0 44 28 73t70 29q44 0 73.5 -28t29.5 -74q0 -42 -30 -70t-73 -28q-39 0 -68.5 28t-29.5 70z" />
<glyph unicode="/" horiz-adv-x="1224" d="M18 -248l1072 1845h116l-1071 -1845h-117z" />
<glyph unicode="0" horiz-adv-x="1361" d="M113 543q0 238 163 401q163 166 404 166q237 0 403 -166q168 -165 168 -401q0 -237 -168 -402q-167 -164 -405 -164t-402 164q-163 166 -163 402zM221 543q0 -199 129 -334q132 -135 330 -135t330 135q133 136 133 334t-133 334q-132 135 -330 135t-330 -135 q-129 -135 -129 -334z" />
<glyph unicode="1" horiz-adv-x="985" d="M168 0v94h319v899h-297v94h404v-993h301v-94h-727z" />
<glyph unicode="2" horiz-adv-x="1107" d="M96 0v31l391 282q10 7 134 99q67 57 100 90q58 58 81 113.5t23 125.5q0 120 -74 196.5t-200 76.5q-133 0 -209 -82q-76 -79 -76 -191q0 -51 15 -112h-105q-16 62 -16 116q0 146 108 254q108 111 285 111q169 0 272 -100q107 -101 107 -260q0 -148 -94 -258 q-93 -113 -273 -238l-227 -160h657v-94h-899z" />
<glyph unicode="3" horiz-adv-x="1044" d="M18 -6l76 55q144 -225 369 -225q152 0 256 96q100 93 100 250q0 148 -100.5 232.5t-278.5 84.5h-104v35l381 471h-615v94h787v-32l-385 -475q169 -3 295 -111q129 -108 129 -301q0 -203 -137 -322q-133 -118 -330 -118q-144 0 -258 72.5t-185 193.5z" />
<glyph unicode="4" horiz-adv-x="1081" d="M49 0v35l451 1052h110l-428 -993h549v490h105v-490h206v-94h-206v-248h-105v248h-682z" />
<glyph unicode="5" horiz-adv-x="1097" d="M70 -6l73 55q144 -225 379 -225q152 0 250 98q100 93 100 248q0 150 -99 234.5t-277 84.5h-301v598h661v-94h-555v-426q99 15 217 15q198 0 330 -105q133 -106 133 -307q0 -203 -137 -322q-135 -120 -324 -120q-292 0 -450 266z" />
<glyph unicode="6" horiz-adv-x="1118" d="M115 422q0 64 12 106q15 57 33 97q10 17 22 42t27 48l27 43l32 49q22 31 33 47l336 498h127l-369 -539q73 43 172 43q183 0 310 -127t127 -309q0 -187 -130 -314q-126 -126 -315 -126q-188 0 -317 126q-127 127 -127 316zM219 418q0 -145 96 -246q101 -96 244 -96 q146 0 240 98q98 98 98 244t-98 244q-93 100 -240 100q-145 0 -242 -100q-98 -98 -98 -244z" />
<glyph unicode="7" horiz-adv-x="1003" d="M68 993v94h882v-32l-706 -1303h-115l676 1241h-737z" />
<glyph unicode="8" horiz-adv-x="1171" d="M125 340q0 250 348 371q-283 117 -283 338q0 152 113 237q115 86 283 86q167 0 282 -86q113 -85 113 -239q0 -226 -285 -334q351 -127 351 -375q0 -155 -127 -258q-124 -100 -334 -100q-212 0 -336 100q-125 101 -125 260zM233 340q0 -123 94.5 -195.5t258.5 -72.5 t258 72.5t94 195.5q0 61 -21.5 107.5t-69 84t-108 66.5t-153.5 61q-93 -32 -154 -61t-108.5 -66.5t-69 -84t-21.5 -107.5zM295 1044q0 -96 69.5 -160t221.5 -122q151 59 219.5 121.5t68.5 160.5q0 107 -81 171.5t-207 64.5q-127 0 -209 -64.5t-82 -171.5z" />
<glyph unicode="9" horiz-adv-x="1118" d="M115 670q0 186 127 313q130 127 317 127q188 0 315 -127q130 -127 130 -313q0 -76 -29 -158q-22 -63 -57 -123q-22 -36 -103 -153l-326 -484h-124l358 524q-73 -43 -172 -43q-182 0 -309 127t-127 310zM219 672q0 -144 96 -248q98 -98 244 -98t240 98q98 101 98 248 t-96 243q-94 99 -242 99q-145 0 -244 -99q-96 -101 -96 -243z" />
<glyph unicode=":" horiz-adv-x="552" d="M176 78q0 44 28 73t70 29q44 0 73.5 -28t29.5 -74q0 -42 -30 -70t-73 -28q-39 0 -68.5 28t-29.5 70zM176 893q0 44 28 73t70 29q44 0 73.5 -28t29.5 -74q0 -44 -30 -72t-73 -28q-42 0 -70 28t-28 72z" />
<glyph unicode=";" horiz-adv-x="552" d="M176 893q0 44 28 73t70 29q44 0 73.5 -28t29.5 -74q0 -44 -30 -72t-73 -28q-42 0 -70 28t-28 72zM195 -369l34 523h127l-73 -523h-88z" />
<glyph unicode="&#x3c;" horiz-adv-x="1146" d="M119 623v34l872 367v-98l-684 -287l684 -285v-100z" />
<glyph unicode="=" horiz-adv-x="1146" d="M147 383v92h852v-92h-852zM147 799v94h852v-94h-852z" />
<glyph unicode="&#x3e;" horiz-adv-x="1146" d="M156 254v100l684 285l-684 287v98l872 -367v-34z" />
<glyph unicode="?" horiz-adv-x="905" d="M113 1098q35 128 127 201t219 73q145 0 243 -94q101 -94 101 -238q0 -95 -47.5 -169.5t-161.5 -178.5l-80 -76q-63 -67 -63 -141q0 -29 12 -78h-94q-21 38 -21 88q0 66 37 120.5t131 139.5q72 66 98 99q80 92 80 190q0 105 -67.5 173.5t-167.5 68.5q-92 0 -159 -55 t-97 -158zM325 80.5q0 45.5 31 71.5q31 29 72 29t72 -29q31 -26 31 -71.5t-31 -74.5q-31 -26 -72 -26t-72 26q-31 29 -31 74.5z" />
<glyph unicode="@" horiz-adv-x="1867" d="M109 514q0 349 243 586q244 235 602 235q344 0 574 -217q231 -218 231 -526q0 -234 -139 -373q-137 -137 -356 -137h-29v160q-44 -84 -134.5 -133.5t-197.5 -49.5q-174 0 -291 123q-116 125 -116 307t116 304q116 125 293 125q105 0 192.5 -45.5t131.5 -124.5v153h98 v-727q153 12 242.5 122.5t89.5 293.5q0 278 -199 465q-200 188 -502 188q-319 0 -534 -209q-215 -206 -215 -520q0 -311 215 -520q217 -211 532 -211q152 0 283 49l23 -82q-148 -59 -316 -59q-352 0 -594 239q-243 237 -243 584zM604 489q0 -145 88 -239t226 -94 q127 0 217 84q90 87 90 252q0 163 -90 247t-217 84q-138 0 -226 -94t-88 -240z" />
<glyph unicode="A" horiz-adv-x="1359" d="M80 0l579 1372h43l578 -1372h-113l-133 322h-708l-136 -322h-110zM365 418h628l-313 764z" />
<glyph unicode="B" horiz-adv-x="1255" d="M201 0v1352h458q168 0 266.5 -91t98.5 -239q0 -188 -156 -274q136 -32 212.5 -129t76.5 -234q0 -169 -113 -276q-112 -109 -307 -109h-536zM307 96h420q151 0 236.5 80t85.5 211q0 132 -85.5 212.5t-236.5 80.5h-420v-584zM307 776h342q126 0 195 65.5t69 174.5 q0 112 -68.5 176.5t-195.5 64.5l-342 -2v-479z" />
<glyph unicode="C" horiz-adv-x="1458" d="M109 676q0 295 200 495q201 201 492 201q169 0 312 -72.5t235 -201.5l-80 -64q-170 240 -465 240q-247 0 -416 -172q-166 -169 -166 -424q0 -256 166 -428q167 -170 416 -170q295 0 465 237l80 -63q-92 -129 -235 -201.5t-312 -72.5q-292 0 -492 200t-200 496z" />
<glyph unicode="D" horiz-adv-x="1425" d="M201 0v1352h381q345 0 540 -189t195 -485q0 -297 -197 -488q-193 -190 -538 -190h-381zM307 96h275q291 0 458 164q166 166 166 418q0 253 -166 416q-164 161 -458 161h-275v-1159z" />
<glyph unicode="E" horiz-adv-x="1153" d="M201 0v1352h846v-97h-740v-477h576v-96h-576v-586h764v-96h-870z" />
<glyph unicode="F" horiz-adv-x="1060" d="M201 0v1352h825v-97h-719v-522h598v-96h-598v-637h-106z" />
<glyph unicode="G" horiz-adv-x="1525" d="M109 676q0 295 200 495q201 201 492 201q165 0 306.5 -70t233.5 -198l-79 -64q-170 234 -459 234q-250 0 -416 -172q-166 -169 -166 -424q0 -256 166 -428t420 -172q157 0 286 71t205 195v223h-497v99h604v-344q-87 -159 -249 -250.5t-355 -91.5q-292 0 -492 200 q-200 203 -200 496z" />
<glyph unicode="H" horiz-adv-x="1445" d="M201 0v1352h106v-574h832v574h106v-1352h-106v682h-832v-682h-106z" />
<glyph unicode="I" horiz-adv-x="505" d="M201 0v1352h106v-1352h-106z" />
<glyph unicode="J" horiz-adv-x="749" d="M57 0v94q71 -14 152 -14q118 0 176.5 49.5t58.5 169.5v1053h107v-1059q0 -156 -87 -234.5t-241 -78.5q-85 0 -166 20z" />
<glyph unicode="K" horiz-adv-x="1255" d="M201 0v1352h106v-1352h-106zM336 731l655 621h142l-654 -623l703 -729h-138z" />
<glyph unicode="L" horiz-adv-x="1021" d="M201 0v1352h106v-1256h666v-96h-772z" />
<glyph unicode="M" horiz-adv-x="1607" d="M201 0v1372h41l561 -805l563 805h41v-1372h-107v1100l-475 -678h-41l-477 678v-1100h-106z" />
<glyph unicode="N" horiz-adv-x="1445" d="M201 0v1372h41l897 -1151v1131h106v-1372h-43l-895 1146v-1126h-106z" />
<glyph unicode="O" d="M109 676q0 295 200 495q201 201 492 201q287 0 491 -201q203 -200 203 -495q0 -293 -203 -496q-203 -200 -491 -200q-292 0 -492 200q-200 203 -200 496zM221 678q0 -254 166 -426t416 -172q248 0 414 172q165 171 165 426q0 253 -168 424q-166 172 -411 172 q-250 0 -416 -172q-166 -169 -166 -424z" />
<glyph unicode="P" horiz-adv-x="1155" d="M201 0v1352h458q188 0 299 -105t111 -266q0 -168 -111 -271.5t-299 -103.5h-352v-606h-106zM307 702h348q143 0 223 75.5t80 201.5t-79.5 201t-223.5 75h-348v-553z" />
<glyph unicode="Q" d="M109 676q0 295 200 495q201 201 492 201q287 0 491 -201q203 -200 203 -495q0 -184 -87.5 -341.5t-238.5 -250.5q293 -391 746 -391q99 0 201 12v-86q-111 -20 -209 -20q-511 0 -826 438q-129 -57 -280 -57q-292 0 -492 200q-200 203 -200 496zM221 678q0 -254 166 -426 t416 -172q248 0 414 172q165 171 165 426q0 256 -165 424q-166 172 -416 172q-248 0 -414 -172q-166 -169 -166 -424z" />
<glyph unicode="R" horiz-adv-x="1257" d="M201 0v1352h458q188 0 299 -105t111 -266q0 -143 -82 -242t-227 -125l457 -614h-125l-455 606h-330v-606h-106zM307 702h348q143 0 223 75.5t80 201.5t-79.5 201t-223.5 75h-348v-553z" />
<glyph unicode="S" horiz-adv-x="1138" d="M94 266l80 60q156 -246 408 -246q137 0 222 69.5t85 186.5q0 101 -58 156q-58 58 -192 122l-154 74q-77 36 -128 68.5t-92 74t-60 92.5t-19 115q0 156 113 244q116 90 281 90q127 0 232.5 -57.5t172.5 -157.5l-78 -59q-123 176 -327 176q-119 0 -199 -57 q-84 -60 -84 -173q0 -102 70 -161q57 -46 170 -101l151 -73q168 -81 239.5 -163t71.5 -208q0 -158 -120 -260q-119 -98 -299 -98q-152 0 -279 75.5t-207 210.5z" />
<glyph unicode="T" horiz-adv-x="1193" d="M49 1255v97h1096v-97h-496v-1255h-106v1255h-494z" />
<glyph unicode="U" horiz-adv-x="1398" d="M180 524v828h107v-832q0 -208 112 -324t301 -116q188 0 300 116.5t112 323.5v832h107v-828q0 -255 -144 -399q-142 -145 -375 -145q-236 0 -378 145t-142 399z" />
<glyph unicode="V" horiz-adv-x="1359" d="M80 1352h115l485 -1168l485 1168h115l-578 -1372h-43z" />
<glyph unicode="W" horiz-adv-x="2195" d="M104 1352h115l410 -1153l448 1173h41l449 -1173l411 1153h113l-500 -1372h-43l-450 1181l-451 -1181h-43z" />
<glyph unicode="X" horiz-adv-x="1204" d="M74 0l469 694l-437 658h123l375 -572l369 572h123l-430 -660l464 -692h-122l-406 604l-405 -604h-123z" />
<glyph unicode="Y" horiz-adv-x="1255" d="M104 1352h117l406 -678l407 678h117l-471 -779v-573h-107v573z" />
<glyph unicode="Z" horiz-adv-x="1208" d="M78 0v35l885 1220h-797v97h962v-35l-886 -1221h888v-96h-1052z" />
<glyph unicode="[" horiz-adv-x="696" d="M219 -268v1761h363v-92h-260v-1575h260v-94h-363z" />
<glyph unicode="\" horiz-adv-x="1224" d="M18 1597h117l1071 -1845h-116z" />
<glyph unicode="]" horiz-adv-x="696" d="M115 -174h260v1575h-260v92h360v-1761h-360v94z" />
<glyph unicode="^" horiz-adv-x="1026" d="M133 592l359 780h43l358 -780h-109l-270 592l-270 -592h-111z" />
<glyph unicode="_" horiz-adv-x="1030" d="M96 -164h836v-90h-836v90z" />
<glyph unicode="`" horiz-adv-x="436" d="M61 1579v18h127l187 -442h-82z" />
<glyph unicode="a" horiz-adv-x="1067" d="M100 248q0 121 94 192.5t250 71.5h344v113q0 139 -72.5 213.5t-199.5 74.5q-173 0 -301 -165l-72 57q144 205 379 205q170 0 270.5 -101.5t100.5 -287.5v-621h-98v154q-119 -174 -355 -174q-144 0 -241 69q-99 71 -99 199zM207 254q0 -87 69.5 -135.5t174.5 -48.5 q137 0 237 86q100 84 100 213v55h-333q-121 0 -184.5 -44t-63.5 -126z" />
<glyph unicode="b" horiz-adv-x="1298" d="M190 0v1536h103v-737q57 98 164 154.5t235 56.5q209 0 350 -150q142 -151 142 -366q0 -216 -142 -367q-141 -147 -350 -147q-130 0 -239 58.5t-164 160.5v-199h-99zM293 494q0 -205 113 -312q112 -106 276 -106q173 0 283 119q112 118 112 301q0 179 -112 297 q-111 120 -283 120q-164 0 -276 -106q-113 -107 -113 -313z" />
<glyph unicode="c" horiz-adv-x="1130" d="M115 496q0 214 147 364q150 150 365 150q249 0 399 -203l-74 -59q-125 165 -325 165q-172 0 -289 -120t-117 -297q0 -178 115 -299q118 -121 289 -121q198 0 327 166l74 -60q-150 -202 -401 -202q-214 0 -363 149q-147 150 -147 367z" />
<glyph unicode="d" horiz-adv-x="1298" d="M115 494q0 215 139 366q141 150 352 150q128 0 235.5 -56.5t164.5 -154.5v737h102v-1536h-98v199q-56 -100 -165.5 -159.5t-238.5 -59.5q-209 0 -350 147q-141 150 -141 367zM221 496q0 -181 111 -301q113 -119 284 -119q163 0 275 106q115 109 115 312q0 204 -115 313 q-112 106 -275 106q-170 0 -284 -120q-111 -120 -111 -297z" />
<glyph unicode="e" horiz-adv-x="1171" d="M115 494q0 213 145 364q146 152 354 152q188 0 314 -123q129 -120 129 -318q0 -67 -8 -98h-826q9 -176 121 -285q113 -110 285 -110q198 0 329 155l66 -67q-156 -184 -397 -184q-215 0 -365 147q-147 150 -147 367zM227 563h723v18q0 150 -94 238q-104 96 -246 96 q-150 0 -256 -100q-106 -97 -127 -252z" />
<glyph unicode="f" horiz-adv-x="581" d="M63 895v94h144v271q0 149 79 222.5t220 73.5q60 0 112 -12v-90q-41 8 -94 8q-215 0 -215 -207v-266h260v-94h-260v-895h-102v895h-144z" />
<glyph unicode="g" horiz-adv-x="1310" d="M127 508q0 212 141 356q142 148 348 148q129 0 240 -59.5t166 -159.5v196h98v-901q0 -223 -131 -348q-132 -129 -342 -129q-136 0 -255 51.5t-199 140.5l63 70q166 -166 389 -166q170 0 271.5 100t101.5 277v129q-57 -96 -165.5 -152.5t-236.5 -56.5q-207 0 -350 146 q-139 145 -139 358zM233 506q0 -175 113 -291q115 -115 285 -115q158 0 272 105q115 106 115 303q0 198 -115 301q-113 104 -272 104q-172 0 -285 -116t-113 -291z" />
<glyph unicode="h" horiz-adv-x="1142" d="M190 0v1536h103v-682q105 156 313 156q166 0 263.5 -106t97.5 -279v-625h-103v616q0 134 -74.5 215.5t-201.5 81.5q-129 0 -212 -84t-83 -213v-616h-103z" />
<glyph unicode="i" horiz-adv-x="483" d="M152 1370q0 37 26.5 63.5t63.5 26.5h7q50 0 71 -44q12 -23 12 -46q0 -22 -12 -46q-22 -44 -71 -44h-7q-37 0 -63.5 26.5t-26.5 63.5zM190 0v989h103v-989h-103z" />
<glyph unicode="j" horiz-adv-x="483" d="M-119 -287q41 -8 94 -8q215 0 215 207v1077h103v-1081q0 -149 -79 -223t-220 -74q-60 0 -113 12v90zM152 1370q0 37 26.5 63.5t63.5 26.5h7q49 0 71 -44q12 -23 12 -46t-12 -46q-22 -44 -71 -44h-7q-37 0 -63.5 26.5t-26.5 63.5z" />
<glyph unicode="k" horiz-adv-x="987" d="M190 0v1536h103v-1536h-103zM324 557l444 432h139l-452 -434l497 -555h-135z" />
<glyph unicode="l" horiz-adv-x="483" d="M190 0v1536h103v-1536h-103z" />
<glyph unicode="m" horiz-adv-x="1773" d="M190 0v989h99v-129q105 150 305 150q229 0 311 -193q51 89 139.5 141t202.5 52q164 0 258 -105t94 -280v-625h-104v616q0 135 -70 216t-192 81q-125 0 -207 -82q-80 -83 -80 -198v-633h-102v616q0 135 -71 216t-193 81q-127 0 -207 -83.5t-80 -213.5v-616h-103z" />
<glyph unicode="n" horiz-adv-x="1142" d="M190 0v989h99v-133q109 154 315 154q168 0 265.5 -105.5t97.5 -279.5v-625h-103v618q0 132 -75 213.5t-201 81.5q-129 0 -213 -84q-82 -82 -82 -211v-618h-103z" />
<glyph unicode="o" horiz-adv-x="1253" d="M115 496q0 217 147 364q150 150 365 150q212 0 362 -150q150 -147 150 -364t-150 -367q-149 -149 -364 -149q-214 0 -363 149q-147 150 -147 367zM221 494q0 -178 115 -299q116 -119 289 -119q170 0 288 121q119 119 119 297q0 179 -117 299t-288 120q-174 0 -291 -120 q-115 -121 -115 -299z" />
<glyph unicode="p" horiz-adv-x="1298" d="M190 -369v1358h99v-198q56 100 165 159.5t238 59.5q209 0 350 -150q142 -148 142 -364t-142 -367q-140 -149 -350 -149q-126 0 -234.5 56.5t-164.5 153.5v-559h-103zM293 496q0 -207 113 -314q112 -106 276 -106q173 0 283 119q112 118 112 299t-112 299 q-111 120 -283 120q-164 0 -276 -106q-113 -107 -113 -311z" />
<glyph unicode="q" horiz-adv-x="1298" d="M115 496q0 217 141 364q141 150 350 150q129 0 238.5 -59.5t165.5 -159.5v198h98v-1358h-102v559q-56 -97 -165 -153.5t-235 -56.5q-212 0 -352 149q-139 151 -139 367zM221 494q0 -179 111 -299q113 -119 284 -119q163 0 275 106q115 109 115 314q0 202 -115 311 q-112 106 -275 106q-168 0 -282 -120q-113 -119 -113 -299z" />
<glyph unicode="r" horiz-adv-x="716" d="M190 0v989h99v-166q111 172 327 172q8 0 64 -6v-90h-51q-133 0 -236 -86q-100 -84 -100 -231v-582h-103z" />
<glyph unicode="s" horiz-adv-x="931" d="M94 184l72 68q138 -176 309 -176q97 0 159 46t62 128q0 81 -63 123q-35 25 -59.5 38t-79.5 38l-91 38q-126 54 -184.5 113.5t-58.5 151.5q0 117 92 188q91 70 223 70q195 0 320 -158l-68 -66q-115 127 -258 127q-89 0 -145 -41t-56 -114q0 -60 40.5 -96.5t146.5 -81.5 l92 -41q134 -58 195 -122t61 -163q0 -131 -96 -203q-95 -71 -234 -71q-236 0 -379 204z" />
<glyph unicode="t" horiz-adv-x="743" d="M57 895v94h172v281h105v-281h319v-94h-319v-614q0 -207 215 -207q55 0 137 16v-90q-73 -20 -154 -20q-144 0 -223.5 73t-79.5 223v619h-172z" />
<glyph unicode="u" horiz-adv-x="1128" d="M176 375v614h103v-618q0 -133 80.5 -214t205.5 -81q124 0 204.5 81t80.5 214v618h102v-614q0 -180 -110 -287q-111 -108 -277 -108q-167 0 -278 108t-111 287z" />
<glyph unicode="v" horiz-adv-x="1079" d="M66 989h110l365 -833l362 833h111l-451 -1009h-43z" />
<glyph unicode="w" horiz-adv-x="1730" d="M66 989h110l311 -821l357 842h43l358 -838l309 817h111l-397 -1009h-43l-361 833l-358 -833h-41z" />
<glyph unicode="x" horiz-adv-x="983" d="M53 0l377 518l-346 471h123l285 -395l284 395h123l-348 -471l379 -518h-123l-318 438l-313 -438h-123z" />
<glyph unicode="y" horiz-adv-x="1079" d="M66 989h112l367 -850l358 850h111l-494 -1151q-99 -227 -309 -227q-71 0 -139 18v90q60 -14 125 -14q155 0 229 170l63 145z" />
<glyph unicode="z" horiz-adv-x="921" d="M68 0v35l620 860h-573v94h731v-35l-621 -860h631v-94h-788z" />
<glyph unicode="{" horiz-adv-x="808" d="M117 565v94h116q134 0 134 132q0 31 -29 202q-29 176 -29 236q0 264 275 264h110v-92h-98q-186 0 -186 -193q0 -58 28 -217q29 -161 29 -207q0 -128 -117 -172q117 -40 117 -172q0 -46 -29 -207q-28 -156 -28 -215q0 -194 186 -194h98v-92h-110q-275 0 -275 266 q0 65 29 233t29 203q0 131 -134 131h-116z" />
<glyph unicode="|" horiz-adv-x="679" d="M293 -248v1845h94v-1845h-94z" />
<glyph unicode="}" horiz-adv-x="808" d="M115 -176h98q186 0 186 194q0 59 -28 215q-29 161 -29 207q0 131 115 172q-59 21 -87 61t-28 111q0 46 29 207q28 159 28 217q0 193 -186 193h-98v92h108q275 0 275 -264q0 -60 -29 -236q-29 -171 -29 -202q0 -132 135 -132h117v-94h-117q-135 0 -135 -131q0 -35 29 -203 t29 -233q0 -266 -275 -266h-108v92z" />
<glyph unicode="~" horiz-adv-x="1146" d="M147 582v30q0 77 47 131t123 54q75 0 172 -60l199 -121q85 -49 131 -49q40 0 63 27t23 70v43h90q4 -12 4 -50q0 -77 -48 -130.5t-124 -53.5q-77 0 -172 59l-198 119q-77 51 -131 51q-40 0 -63 -27t-23 -71v-41h-90z" />
<glyph unicode="&#xa1;" horiz-adv-x="583" d="M190 911q0 42 29.5 70.5t71.5 28.5t72 -28.5t30 -70.5q2 -63 -50 -89t-104 0t-49 89zM227 -369l21 961h88l20 -961h-129z" />
<glyph unicode="&#xa2;" horiz-adv-x="1134" d="M76 674q0 197 125 340q127 145 315 172v352h105v-350q230 -15 368 -203l-74 -59q-115 151 -294 166v-836q173 15 294 166l72 -60q-135 -187 -366 -202v-348h-105v350q-188 27 -315 172q-125 143 -125 340zM184 674q0 -155 92 -273q94 -114 240 -141v827 q-147 -28 -240 -143q-92 -115 -92 -270z" />
<glyph unicode="&#xa3;" horiz-adv-x="1042" d="M129 0v31q274 160 274 395q0 38 -10 90h-243v94h210q-19 44 -61 121q-49 91 -70.5 159t-21.5 140q0 154 102 248q101 94 264 94q148 0 249 -81.5t145 -235.5l-97 -33q-80 252 -295 252q-119 0 -188.5 -72.5t-69.5 -185.5q0 -64 25 -131q32 -77 70 -146q42 -77 61 -129 h330v-94h-303q10 -52 10 -88q0 -207 -160 -334h600v-94h-821z" />
<glyph unicode="&#xa4;" horiz-adv-x="1345" d="M66 125l247 254q-106 127 -106 297q0 173 106 297l-247 254l63 63l248 -254q125 101 291 101q163 0 290 -103l256 256l66 -63l-256 -256q104 -125 104 -295q0 -168 -104 -293l256 -256l-63 -66l-256 258q-125 -104 -295 -104q-165 0 -289 100l-248 -254zM315 676 q0 -156 101 -260q102 -105 250 -105q150 0 252 105q102 108 102 260q0 155 -102 260q-100 106 -250 106q-152 0 -252 -106q-101 -104 -101 -260z" />
<glyph unicode="&#xa5;" horiz-adv-x="1089" d="M23 1352h116l406 -572l405 572h119l-455 -639h398v-92h-414v-224h414v-92h-414v-305h-106v305h-412v92h412v224h-412v92h395z" />
<glyph unicode="&#xa6;" horiz-adv-x="679" d="M293 -248v615h94v-615h-94zM293 983v614h94v-614h-94z" />
<glyph unicode="&#xa7;" horiz-adv-x="1148" d="M78 795q0 105 70 176t192 84q-4 20 -4 51q0 118 82 195t211 77q188 0 313 -168l-78 -61q-109 133 -239 133q-82 0 -132.5 -47t-50.5 -125q0 -69 43 -126t144 -132l198 -158q134 -102 189 -177.5t55 -164.5q0 -105 -70.5 -175t-191.5 -83q6 -27 6 -53q0 -118 -82 -195 t-211 -77q-190 0 -313 170l76 59q107 -131 239 -131q84 0 133.5 47t49.5 125q0 66 -42.5 122t-142.5 136l-198 156q-134 103 -190 178.5t-56 163.5zM184 797q0 -60 41 -114.5t140 -131.5l198 -158q166 -132 213 -215q88 11 138.5 55.5t50.5 116.5q0 60 -40 114t-141 134 l-204 164q-157 121 -207 207q-88 -11 -138.5 -56t-50.5 -116z" />
<glyph unicode="&#xa8;" horiz-adv-x="708" d="M61 1370q0 36 26.5 62t62.5 26q37 0 62.5 -25.5t25.5 -62.5q0 -35 -25.5 -60.5t-62.5 -25.5q-36 0 -62.5 25.5t-26.5 60.5zM471 1370q0 36 26 62t62 26q37 0 63.5 -25.5t26.5 -62.5q0 -35 -26.5 -60.5t-63.5 -25.5q-35 0 -61.5 25.5t-26.5 60.5z" />
<glyph unicode="&#xa9;" d="M109 676q0 295 200 495q204 201 492 201q287 0 491 -201q203 -200 203 -495q0 -294 -205 -496q-203 -200 -489 -200q-289 0 -492 200q-200 203 -200 496zM199 678q0 -263 174 -440q177 -177 428 -177t428 177q176 179 176 440q0 260 -176 436t-428 176t-428 -176 q-174 -174 -174 -436zM418 676q0 170 117 287q116 116 284 116q193 0 314 -157l-68 -60q-98 125 -246 125q-128 0 -215 -90q-84 -90 -84 -221q0 -129 84 -219q87 -90 213 -90q147 0 248 122l68 -57q-122 -158 -316 -158q-165 0 -282 117t-117 285z" />
<glyph unicode="&#xaa;" horiz-adv-x="741" d="M94 662q0 80 60 127t163 47h199v57q0 78 -42.5 120t-117.5 42q-96 0 -182 -92l-53 59q107 119 244 119q114 0 179.5 -66t65.5 -186v-389h-88v82q-77 -95 -213 -95q-95 0 -155 47.5t-60 127.5zM193 664q0 -48 37.5 -73.5t97.5 -25.5q80 0 134 47t54 119v31h-188 q-135 0 -135 -98z" />
<glyph unicode="&#xab;" horiz-adv-x="942" d="M88 535v34l346 367l70 -62l-295 -321l295 -326l-70 -59zM436 535v34l346 367l72 -62l-297 -321l297 -326l-72 -59z" />
<glyph unicode="&#xac;" horiz-adv-x="1146" d="M125 592v92h831v-496h-102v404h-729z" />
<glyph unicode="&#xad;" horiz-adv-x="702" d="M117 592v90h467v-90h-467z" />
<glyph unicode="&#xae;" horiz-adv-x="1165" d="M98 891q0 201 142 346q145 145 344 145q200 0 342 -145q141 -144 141 -346t-141 -346t-342 -144q-198 0 -342 144t-144 346zM178 891q0 -171 117 -291q119 -119 289 -119t286 119q119 119 119 291q0 174 -119 293q-118 121 -286 121t-289 -121q-117 -120 -117 -293z M397 1149h199q80 0 129 -44t49 -116q0 -103 -94 -143l160 -211h-103l-149 194h-103v-194h-86zM483 905h111q42 0 67 23t25 59q0 39 -25 62.5t-67 23.5h-111v-168z" />
<glyph unicode="&#xaf;" horiz-adv-x="659" d="M61 1327v88h537v-88h-537z" />
<glyph unicode="&#xb0;" horiz-adv-x="737" d="M72 1079q0 121 86 207t211 86t211 -86t86 -207q0 -123 -86 -209t-211 -86t-211 86t-86 209zM166 1079q0 -87 59 -147t144 -60q86 0 144 59.5t58 147.5q0 87 -58 147t-144 60q-85 0 -144 -60.5t-59 -146.5z" />
<glyph unicode="&#xb1;" horiz-adv-x="1146" d="M147 0v94h852v-94h-852zM147 635v94h375v358h103v-358h374v-94h-374v-361h-103v361h-375z" />
<glyph unicode="&#xb2;" horiz-adv-x="743" d="M74 745v25l307 322q79 83 112 140t33 118q0 73 -47 123.5t-121 50.5q-78 0 -127 -53t-49 -130q0 -29 6 -67h-92q-8 31 -8 74q0 107 74 184q75 78 196 78q117 0 192 -72t75 -182q0 -56 -29 -119q-27 -55 -55.5 -91.5t-98.5 -111.5l-198 -203h415v-86h-585z" />
<glyph unicode="&#xb3;" horiz-adv-x="720" d="M47 905l68 49q89 -135 219 -135q88 0 144.5 54.5t56.5 140.5t-57.5 133t-162.5 47h-77v27l227 290h-363v86h508v-28l-229 -293q106 -8 179 -77t73 -185q0 -129 -88 -205t-211 -76q-185 0 -287 172z" />
<glyph unicode="&#xb4;" horiz-adv-x="436" d="M61 1155l187 442h127v-18l-232 -424h-82z" />
<glyph unicode="&#xb5;" horiz-adv-x="1196" d="M190 -369v1358h103v-602q0 -136 81 -223.5t204 -87.5q125 0 205.5 86t80.5 225v602h103v-745q0 -160 118 -160q21 0 62 6v-90q-58 -10 -86 -10q-150 0 -184 143q-102 -153 -295 -153q-187 0 -289 147v-496h-103z" />
<glyph unicode="&#xb6;" horiz-adv-x="1110" d="M88 930q0 192 133 307q136 115 344 115h123v-852h-123q-209 0 -342 118q-135 120 -135 312zM451 -276q93 -17 135 -17q110 0 165.5 51.5t55.5 173.5v1420h104v-1424q0 -317 -309 -317q-78 0 -151 20v93z" />
<glyph unicode="&#xb7;" horiz-adv-x="552" d="M176 637q0 44 28 73t70 29q44 0 73.5 -28t29.5 -74q0 -44 -30 -72t-73 -28q-42 0 -70 28t-28 72z" />
<glyph unicode="&#xb8;" horiz-adv-x="505" d="M61 -289q60 -14 123 -14q74 0 119 38t45 109q0 88 -88 164l39 31q145 -68 145 -207q0 -96 -67 -158.5t-178 -62.5q-71 0 -138 20v80z" />
<glyph unicode="&#xb9;" horiz-adv-x="708" d="M100 745v86h224v680h-220v86h316v-766h196v-86h-516z" />
<glyph unicode="&#xba;" horiz-adv-x="843" d="M94 813q0 137 94 231q95 95 232 95q138 0 233 -95q97 -97 97 -231t-97 -231q-95 -95 -233 -95q-137 0 -232 95q-94 94 -94 231zM188 813q0 -100 66 -172q65 -68 166 -68t166 68q67 70 67 172q0 103 -67 170q-64 70 -166 70t-166 -70q-66 -69 -66 -170z" />
<glyph unicode="&#xbb;" horiz-adv-x="942" d="M90 227l295 326l-295 321l70 62l346 -367v-34l-346 -367zM438 227l295 326l-295 321l70 62l348 -367v-34l-348 -367z" />
<glyph unicode="&#xbc;" horiz-adv-x="1773" d="M100 500v86h224v680h-220v86h316v-766h196v-86h-516zM508 0l776 1352h98l-778 -1352h-96zM1096 160v28l276 664h98l-256 -610h308v290h90v-290h125v-82h-125v-160h-90v160h-426z" />
<glyph unicode="&#xbd;" horiz-adv-x="1853" d="M100 500v86h224v680h-220v86h316v-766h196v-86h-516zM508 0l776 1352h98l-778 -1352h-96zM1184 0v25l307 321q79 83 112 140t33 118q0 73 -47 123.5t-121 50.5q-78 0 -127 -52.5t-49 -129.5q0 -30 6 -68h-92q-8 31 -8 74q0 107 74 184q75 78 196 78q117 0 192 -72 t75 -182q0 -55 -29 -118q-27 -55 -55.5 -91.5t-98.5 -111.5l-198 -203h415v-86h-585z" />
<glyph unicode="&#xbe;" horiz-adv-x="1714" d="M47 659l68 50q89 -136 219 -136q88 0 144.5 54.5t56.5 140.5t-57.5 133t-162.5 47h-77v27l227 291h-363v86h508v-29l-231 -295q99 -6 176 -74q78 -66 78 -186q0 -129 -88 -205t-211 -76q-185 0 -287 172zM449 0l776 1352h98l-778 -1352h-96zM1036 160v28l277 664h98 l-256 -610h307v290h90v-290h125v-82h-125v-160h-90v160h-426z" />
<glyph unicode="&#xbf;" horiz-adv-x="905" d="M102 -55q0 70 31 137q39 72 70 106q41 47 106 107q85 79 115.5 122t30.5 97q0 24 -13 78h95q20 -44 20 -88q0 -65 -37.5 -121t-130.5 -141q-27 -26 -63 -64l-37 -37q-80 -92 -80 -192q0 -105 68 -173.5t169 -68.5q92 0 159 55t97 158l91 -35q-35 -128 -127.5 -201 t-219.5 -73q-141 0 -245 96q-99 95 -99 238zM373 911q-2 60 50 85.5t103.5 1t48.5 -86.5q0 -46 -29 -75t-71 -29t-72 30t-30 74z" />
<glyph unicode="&#xc0;" horiz-adv-x="1359" d="M80 0l579 1372h43l578 -1372h-113l-133 322h-708l-136 -322h-110zM365 418h628l-313 764zM410 1845v19h127l186 -381h-82z" />
<glyph unicode="&#xc1;" horiz-adv-x="1359" d="M80 0l579 1372h43l578 -1372h-113l-133 322h-708l-136 -322h-110zM365 418h628l-313 764zM639 1483l186 381h127v-19l-231 -362h-82z" />
<glyph unicode="&#xc2;" horiz-adv-x="1359" d="M80 0l579 1372h43l578 -1372h-113l-133 322h-708l-136 -322h-110zM350 1483l299 381h62l299 -381h-86l-244 264l-244 -264h-86zM365 418h628l-313 764z" />
<glyph unicode="&#xc3;" horiz-adv-x="1359" d="M80 0l579 1372h43l578 -1372h-113l-133 322h-708l-136 -322h-110zM365 418h628l-313 764zM377 1599q0 75 40 126t107 51q57 0 140 -56l73 -49q61 -43 92 -43q66 0 66 86v41h90q2 -10 2 -45q0 -76 -39 -126t-106 -50q-60 0 -142 55l-71 47q-64 43 -92 43q-66 0 -66 -86 v-39h-92q-2 8 -2 45z" />
<glyph unicode="&#xc4;" horiz-adv-x="1359" d="M80 0l579 1372h43l578 -1372h-113l-133 322h-708l-136 -322h-110zM360 1655q0 36 26 61t63 25t62.5 -24.5t25.5 -61.5t-25.5 -62.5t-62.5 -25.5q-36 0 -62.5 26t-26.5 62zM365 418h628l-313 764zM823 1653q0 36 26 62t62 26q37 0 62.5 -25.5t25.5 -62.5 q0 -35 -25.5 -60.5t-62.5 -25.5q-35 0 -61.5 25.5t-26.5 60.5z" />
<glyph unicode="&#xc5;" horiz-adv-x="1359" d="M80 0l579 1372h43l578 -1372h-113l-133 322h-708l-136 -322h-110zM365 418h628l-313 764zM469 1659q0 88 61.5 148.5t149.5 60.5q90 0 151.5 -60.5t61.5 -148.5t-61.5 -148.5t-151.5 -60.5q-88 0 -149.5 60.5t-61.5 148.5zM557 1659q0 -54 35.5 -89.5t89.5 -35.5 q52 0 87.5 36t35.5 89q0 54 -34.5 89.5t-88.5 35.5t-89.5 -35.5t-35.5 -89.5z" />
<glyph unicode="&#xc6;" horiz-adv-x="1652" d="M35 0l704 1352h807v-97h-684l84 -477h436v-96h-419l102 -586h506v-96h-600l-56 324h-598l-167 -324h-115zM369 420h530l-133 776z" />
<glyph unicode="&#xc7;" horiz-adv-x="1458" d="M109 676q0 295 200 495q201 201 492 201q169 0 312 -72.5t235 -201.5l-80 -64q-170 240 -465 240q-247 0 -416 -172q-166 -169 -166 -424q0 -256 166 -428q167 -170 416 -170q295 0 465 237l80 -63q-158 -229 -461 -270q65 -62 65 -152q0 -96 -67 -158.5t-178 -62.5 q-71 0 -138 20v80q60 -14 123 -14q71 0 117 37q31 24 42.5 66.5t-2 91t-50.5 88.5q-290 0 -490 200t-200 496z" />
<glyph unicode="&#xc8;" horiz-adv-x="1153" d="M201 0v1352h846v-97h-740v-477h576v-96h-576v-586h764v-96h-870zM346 1845v19h127l186 -381h-81z" />
<glyph unicode="&#xc9;" horiz-adv-x="1153" d="M201 0v1352h846v-97h-740v-477h576v-96h-576v-586h764v-96h-870zM575 1483l187 381h127v-19l-232 -362h-82z" />
<glyph unicode="&#xca;" horiz-adv-x="1153" d="M201 0v1352h846v-97h-740v-477h576v-96h-576v-586h764v-96h-870zM287 1483l299 381h61l299 -381h-86l-244 264l-243 -264h-86z" />
<glyph unicode="&#xcb;" horiz-adv-x="1153" d="M201 0v1352h846v-97h-740v-477h576v-96h-576v-586h764v-96h-870zM297 1655q0 37 25.5 61.5t62.5 24.5t62.5 -24.5t25.5 -61.5t-25.5 -62.5t-62.5 -25.5q-36 0 -62 26t-26 62zM760 1653q0 36 26 62t62 26q37 0 62.5 -25.5t25.5 -62.5q0 -35 -25.5 -60.5t-62.5 -25.5 q-35 0 -61.5 25.5t-26.5 60.5z" />
<glyph unicode="&#xcc;" horiz-adv-x="505" d="M-18 1845v19h127l186 -381h-82zM201 0v1352h106v-1352h-106z" />
<glyph unicode="&#xcd;" horiz-adv-x="505" d="M201 0v1352h106v-1352h-106zM211 1483l186 381h127v-19l-231 -362h-82z" />
<glyph unicode="&#xce;" horiz-adv-x="505" d="M-78 1483l299 381h62l299 -381h-86l-244 264l-244 -264h-86zM201 0v1352h106v-1352h-106z" />
<glyph unicode="&#xcf;" horiz-adv-x="505" d="M-68 1655q0 37 25.5 61.5t62.5 24.5t63 -25t26 -61q0 -37 -26 -62.5t-63 -25.5q-36 0 -62 26t-26 62zM201 0v1352h106v-1352h-106zM395 1653q0 36 26 62t62 26q37 0 62.5 -25.5t25.5 -62.5q0 -35 -25.5 -60.5t-62.5 -25.5q-35 0 -61.5 25.5t-26.5 60.5z" />
<glyph unicode="&#xd0;" horiz-adv-x="1425" d="M-4 575v93h205v684h381q345 0 540 -189t195 -485q0 -297 -197 -488q-193 -190 -538 -190h-381v575h-205zM307 96h275q291 0 458 164q166 166 166 418q0 253 -166 416q-164 161 -458 161h-275v-587h291v-93h-291v-479z" />
<glyph unicode="&#xd1;" horiz-adv-x="1445" d="M201 0v1372h41l897 -1151v1131h106v-1372h-43l-895 1146v-1126h-106zM418 1599q0 75 40 126t107 51q57 0 140 -56l73 -49q61 -43 92 -43q66 0 66 86v41h90q2 -10 2 -45q0 -76 -39 -126t-106 -50q-60 0 -142 55l-71 47q-64 43 -92 43q-66 0 -66 -86v-39h-92q-2 8 -2 45z " />
<glyph unicode="&#xd2;" d="M109 676q0 295 200 495q201 201 492 201q287 0 491 -201q203 -200 203 -495q0 -293 -203 -496q-203 -200 -491 -200q-292 0 -492 200q-200 203 -200 496zM221 678q0 -254 166 -426t416 -172q248 0 414 172q165 171 165 426q0 253 -168 424q-166 172 -411 172 q-250 0 -416 -172q-166 -169 -166 -424zM530 1845v19h127l187 -381h-82z" />
<glyph unicode="&#xd3;" d="M109 676q0 295 200 495q201 201 492 201q287 0 491 -201q203 -200 203 -495q0 -293 -203 -496q-203 -200 -491 -200q-292 0 -492 200q-200 203 -200 496zM221 678q0 -254 166 -426t416 -172q248 0 414 172q165 171 165 426q0 253 -168 424q-166 172 -411 172 q-250 0 -416 -172q-166 -169 -166 -424zM760 1483l186 381h127v-19l-231 -362h-82z" />
<glyph unicode="&#xd4;" d="M109 676q0 295 200 495q201 201 492 201q287 0 491 -201q203 -200 203 -495q0 -293 -203 -496q-203 -200 -491 -200q-292 0 -492 200q-200 203 -200 496zM221 678q0 -254 166 -426t416 -172q248 0 414 172q165 171 165 426q0 253 -168 424q-166 172 -411 172 q-250 0 -416 -172q-166 -169 -166 -424zM471 1483l299 381h61l299 -381h-86l-243 264l-244 -264h-86z" />
<glyph unicode="&#xd5;" d="M109 676q0 295 200 495q201 201 492 201q287 0 491 -201q203 -200 203 -495q0 -293 -203 -496q-203 -200 -491 -200q-292 0 -492 200q-200 203 -200 496zM221 678q0 -254 166 -426t416 -172q248 0 414 172q165 171 165 426q0 253 -168 424q-166 172 -411 172 q-250 0 -416 -172q-166 -169 -166 -424zM498 1599q0 75 40 126t107 51q56 0 139 -56l74 -49q61 -43 92 -43q66 0 66 86v41h90q2 -10 2 -45q0 -76 -39 -126t-106 -50q-60 0 -142 55l-71 47q-64 43 -93 43q-65 0 -65 -86v-39h-92q-2 8 -2 45z" />
<glyph unicode="&#xd6;" d="M109 676q0 295 200 495q201 201 492 201q287 0 491 -201q203 -200 203 -495q0 -293 -203 -496q-203 -200 -491 -200q-292 0 -492 200q-200 203 -200 496zM221 678q0 -254 166 -426t416 -172q248 0 414 172q165 171 165 426q0 253 -168 424q-166 172 -411 172 q-250 0 -416 -172q-166 -169 -166 -424zM481 1655q0 37 25.5 61.5t62.5 24.5t62.5 -24.5t25.5 -61.5t-25.5 -62.5t-62.5 -25.5q-36 0 -62 26t-26 62zM944 1653q0 36 26 62t62 26q37 0 62.5 -25.5t25.5 -62.5q0 -35 -25.5 -60.5t-62.5 -25.5q-35 0 -61.5 25.5t-26.5 60.5z " />
<glyph unicode="&#xd7;" horiz-adv-x="1146" d="M180 307l330 332l-330 330l64 63l329 -327l330 327l64 -63l-328 -330l328 -330l-62 -65l-330 329l-329 -329z" />
<glyph unicode="&#xd8;" d="M98 39l178 178q-167 191 -167 459q0 295 200 495q201 201 492 201q262 0 459 -170l178 178l67 -67l-178 -178q168 -192 168 -459q0 -293 -203 -496q-203 -200 -491 -200q-265 0 -459 170l-176 -179zM217 678q0 -221 131 -389l842 841q-169 146 -387 146q-251 0 -420 -172 q-166 -172 -166 -426zM414 221q165 -145 389 -145q248 0 414 172q167 173 167 430q0 223 -131 385z" />
<glyph unicode="&#xd9;" horiz-adv-x="1398" d="M180 524v828h107v-832q0 -208 112 -324t301 -116q188 0 300 116.5t112 323.5v832h107v-828q0 -255 -144 -399q-142 -145 -375 -145q-236 0 -378 145t-142 399zM426 1845v19h127l186 -381h-82z" />
<glyph unicode="&#xda;" horiz-adv-x="1398" d="M180 524v828h107v-832q0 -208 112 -324t301 -116q188 0 300 116.5t112 323.5v832h107v-828q0 -255 -144 -399q-142 -145 -375 -145q-236 0 -378 145t-142 399zM655 1483l187 381h127v-19l-232 -362h-82z" />
<glyph unicode="&#xdb;" horiz-adv-x="1398" d="M180 524v828h107v-832q0 -208 112 -324t301 -116q188 0 300 116.5t112 323.5v832h107v-828q0 -255 -144 -399q-142 -145 -375 -145q-236 0 -378 145t-142 399zM369 1483l299 381h61l299 -381h-86l-244 264l-243 -264h-86z" />
<glyph unicode="&#xdc;" horiz-adv-x="1398" d="M180 524v828h107v-832q0 -208 112 -324t301 -116q188 0 300 116.5t112 323.5v832h107v-828q0 -255 -144 -399q-142 -145 -375 -145q-236 0 -378 145t-142 399zM377 1655q0 37 25.5 61.5t62.5 24.5t62.5 -24.5t25.5 -61.5t-25.5 -62.5t-62.5 -25.5q-36 0 -62 26t-26 62z M840 1653q0 36 26 62t62 26q37 0 62.5 -25.5t25.5 -62.5q0 -35 -25.5 -60.5t-62.5 -25.5q-35 0 -61.5 25.5t-26.5 60.5z" />
<glyph unicode="&#xdd;" horiz-adv-x="1255" d="M104 1352h117l406 -678l407 678h117l-471 -779v-573h-107v573zM582 1483l186 381h127v-19l-231 -362h-82z" />
<glyph unicode="&#xde;" horiz-adv-x="1155" d="M201 0v1352h106v-258h352q189 0 299.5 -105.5t110.5 -277.5t-110.5 -277.5t-299.5 -105.5h-352v-328h-106zM307 424h348q144 0 223.5 77t79.5 208t-79.5 209.5t-223.5 78.5h-348v-573z" />
<glyph unicode="&#xdf;" horiz-adv-x="1214" d="M190 0v1122q0 204 111 318q113 116 289 116q141 0 226 -74.5t85 -203.5q0 -77 -29 -162l-92 -282q-35 -110 -35 -146q0 -46 30 -76t120 -84q16 -10 23 -12q70 -39 122 -78q47 -34 80 -87.5t33 -112.5q0 -121 -96 -193q-94 -70 -234 -70q-192 0 -327 150l59 72 q119 -125 279 -125q96 0 154.5 43t58.5 121q0 62 -41 100q-33 33 -152 102q-121 66 -168 116t-47 122q0 62 37 166l92 276q27 82 27 148q0 91 -56.5 142.5t-154.5 51.5q-132 0 -211.5 -89.5t-79.5 -250.5v-1120h-103z" />
<glyph unicode="&#xe0;" horiz-adv-x="1067" d="M100 248q0 121 94 192.5t250 71.5h344v113q0 139 -72.5 213.5t-199.5 74.5q-173 0 -301 -165l-72 57q144 205 379 205q170 0 270.5 -101.5t100.5 -287.5v-621h-98v154q-119 -174 -355 -174q-144 0 -241 69q-99 71 -99 199zM207 254q0 -87 69.5 -135.5t174.5 -48.5 q137 0 237 86q100 84 100 213v55h-333q-121 0 -184.5 -44t-63.5 -126zM252 1579v18h127l186 -442h-82z" />
<glyph unicode="&#xe1;" horiz-adv-x="1067" d="M100 248q0 121 94 192.5t250 71.5h344v113q0 139 -72.5 213.5t-199.5 74.5q-173 0 -301 -165l-72 57q144 205 379 205q170 0 270.5 -101.5t100.5 -287.5v-621h-98v154q-119 -174 -355 -174q-144 0 -241 69q-99 71 -99 199zM207 254q0 -87 69.5 -135.5t174.5 -48.5 q137 0 237 86q100 84 100 213v55h-333q-121 0 -184.5 -44t-63.5 -126zM481 1155l187 442h127v-18l-232 -424h-82z" />
<glyph unicode="&#xe2;" horiz-adv-x="1067" d="M100 248q0 121 94 192.5t250 71.5h344v113q0 139 -72.5 213.5t-199.5 74.5q-173 0 -301 -165l-72 57q144 205 379 205q170 0 270.5 -101.5t100.5 -287.5v-621h-98v154q-119 -174 -355 -174q-144 0 -241 69q-99 71 -99 199zM207 254q0 -87 69.5 -135.5t174.5 -48.5 q137 0 237 86q100 84 100 213v55h-333q-121 0 -184.5 -44t-63.5 -126zM213 1155l279 442h59l278 -442h-84l-223 311l-225 -311h-84z" />
<glyph unicode="&#xe3;" horiz-adv-x="1067" d="M100 248q0 121 94 192.5t250 71.5h344v113q0 139 -72.5 213.5t-199.5 74.5q-173 0 -301 -165l-72 57q144 205 379 205q170 0 270.5 -101.5t100.5 -287.5v-621h-98v154q-119 -174 -355 -174q-144 0 -241 69q-99 71 -99 199zM207 254q0 -87 69.5 -135.5t174.5 -48.5 q137 0 237 86q100 84 100 213v55h-333q-121 0 -184.5 -44t-63.5 -126zM233 1309q0 81 39 132.5t109 51.5q69 0 133 -61l51 -52q49 -49 88 -49q64 0 64 94v39h90q2 -10 2 -45q0 -79 -37 -131q-36 -55 -108.5 -54t-133.5 62l-53 52q-49 49 -86 49q-65 0 -65 -92v-41h-90 q-3 15 -3 45z" />
<glyph unicode="&#xe4;" horiz-adv-x="1067" d="M100 248q0 121 94 192.5t250 71.5h344v113q0 139 -72.5 213.5t-199.5 74.5q-173 0 -301 -165l-72 57q144 205 379 205q170 0 270.5 -101.5t100.5 -287.5v-621h-98v154q-119 -174 -355 -174q-144 0 -241 69q-99 71 -99 199zM207 254q0 -87 69.5 -135.5t174.5 -48.5 q137 0 237 86q100 84 100 213v55h-333q-121 0 -184.5 -44t-63.5 -126zM227 1370q0 36 26 62t62 26q37 0 62.5 -25.5t25.5 -62.5q0 -35 -25.5 -60.5t-62.5 -25.5q-35 0 -61.5 25.5t-26.5 60.5zM637 1370q0 36 26 62t62 26q37 0 63.5 -25.5t26.5 -62.5q0 -35 -26.5 -60.5 t-63.5 -25.5q-35 0 -61.5 25.5t-26.5 60.5z" />
<glyph unicode="&#xe5;" horiz-adv-x="1067" d="M100 248q0 121 94 192.5t250 71.5h344v113q0 139 -72.5 213.5t-199.5 74.5q-173 0 -301 -165l-72 57q144 205 379 205q170 0 270.5 -101.5t100.5 -287.5v-621h-98v154q-119 -174 -355 -174q-144 0 -241 69q-99 71 -99 199zM207 254q0 -87 69.5 -135.5t174.5 -48.5 q137 0 237 86q100 84 100 213v55h-333q-121 0 -184.5 -44t-63.5 -126zM309 1366q0 88 61.5 148.5t149.5 60.5q90 0 151.5 -60.5t61.5 -148.5t-61.5 -148.5t-151.5 -60.5q-88 0 -149.5 60.5t-61.5 148.5zM397 1366q0 -54 35.5 -89.5t89.5 -35.5t88.5 35.5t34.5 89.5 t-35.5 89.5t-87.5 35.5q-54 0 -89.5 -35.5t-35.5 -89.5z" />
<glyph unicode="&#xe6;" horiz-adv-x="1847" d="M100 262q0 128 94 204.5t250 76.5h344v82q0 139 -72.5 213.5t-197.5 74.5q-176 0 -301 -165l-72 57q144 205 379 205q129 0 219 -63t125 -181q67 114 178 179t244 65q188 0 314 -123q129 -120 129 -320q0 -73 -9 -114h-825q15 -167 127 -273q113 -104 279 -104 q196 0 327 155l68 -67q-156 -184 -397 -184q-145 0 -264.5 72t-182.5 196q-42 -123 -155 -195.5t-257 -72.5q-153 0 -248.5 75.5t-95.5 206.5zM207 272q0 -96 70 -149t178 -53q133 0 233 86q100 84 100 213v84h-333q-248 0 -248 -181zM899 543h727q9 167 -92 268 q-101 104 -252 104q-154 0 -260 -106q-108 -105 -123 -266z" />
<glyph unicode="&#xe7;" horiz-adv-x="1130" d="M115 496q0 214 147 364q150 150 365 150q249 0 399 -203l-74 -59q-125 165 -325 165q-172 0 -289 -120t-117 -297q0 -178 115 -299q118 -121 289 -121q198 0 327 166l74 -60q-125 -168 -328 -198q66 -63 66 -152q0 -96 -67.5 -158.5t-178.5 -62.5q-70 0 -137 20v80 q60 -14 123 -14q71 0 117 37q31 24 42 66.5t-2.5 91t-50.5 88.5q-208 3 -352 153q-143 149 -143 363z" />
<glyph unicode="&#xe8;" horiz-adv-x="1171" d="M115 494q0 213 145 364q146 152 354 152q188 0 314 -123q129 -120 129 -318q0 -67 -8 -98h-826q9 -176 121 -285q113 -110 285 -110q198 0 329 155l66 -67q-156 -184 -397 -184q-215 0 -365 147q-147 150 -147 367zM227 563h723q6 163 -94 256q-104 96 -246 96 q-150 0 -256 -100q-106 -97 -127 -252zM344 1579v18h127l186 -442h-82z" />
<glyph unicode="&#xe9;" horiz-adv-x="1171" d="M115 494q0 213 145 364q146 152 354 152q188 0 314 -123q129 -120 129 -318q0 -67 -8 -98h-826q9 -176 121 -285q113 -110 285 -110q198 0 329 155l66 -67q-156 -184 -397 -184q-215 0 -365 147q-147 150 -147 367zM227 563h723q6 163 -94 256q-104 96 -246 96 q-150 0 -256 -100q-106 -97 -127 -252zM573 1155l187 442h127v-18l-232 -424h-82z" />
<glyph unicode="&#xea;" horiz-adv-x="1171" d="M115 494q0 213 145 364q146 152 354 152q188 0 314 -123q129 -120 129 -318q0 -67 -8 -98h-826q9 -176 121 -285q113 -110 285 -110q198 0 329 155l66 -67q-156 -184 -397 -184q-215 0 -365 147q-147 150 -147 367zM227 563h723q6 163 -94 256q-104 96 -246 96 q-150 0 -256 -100q-106 -97 -127 -252zM305 1155l279 442h59l279 -442h-84l-224 311l-225 -311h-84z" />
<glyph unicode="&#xeb;" horiz-adv-x="1171" d="M115 494q0 213 145 364q146 152 354 152q188 0 314 -123q129 -120 129 -318q0 -67 -8 -98h-826q9 -176 121 -285q113 -110 285 -110q198 0 329 155l66 -67q-156 -184 -397 -184q-215 0 -365 147q-147 150 -147 367zM227 563h723q6 163 -94 256q-104 96 -246 96 q-150 0 -256 -100q-106 -97 -127 -252zM319 1370q0 36 26.5 62t62.5 26q37 0 62.5 -25.5t25.5 -62.5q0 -35 -25.5 -60.5t-62.5 -25.5q-36 0 -62.5 25.5t-26.5 60.5zM729 1370q0 36 26 62t62 26q37 0 63.5 -25.5t26.5 -62.5q0 -35 -26.5 -60.5t-63.5 -25.5q-35 0 -61.5 25.5 t-26.5 60.5z" />
<glyph unicode="&#xec;" horiz-adv-x="483" d="M35 1579v18h127l125 -442h-82zM190 0v989h103v-989h-103z" />
<glyph unicode="&#xed;" horiz-adv-x="483" d="M190 0v989h103v-989h-103zM199 1155l125 442h127v-18l-170 -424h-82z" />
<glyph unicode="&#xee;" horiz-adv-x="483" d="M-68 1155l279 442h59l279 -442h-84l-223 311l-226 -311h-84zM190 0v989h103v-989h-103z" />
<glyph unicode="&#xef;" horiz-adv-x="483" d="M-23 1370q0 36 26.5 62t62.5 26q37 0 62.5 -25.5t25.5 -62.5q0 -35 -25.5 -60.5t-62.5 -25.5q-36 0 -62.5 25.5t-26.5 60.5zM190 0v989h103v-989h-103zM326 1370q0 36 26 62t62 26q37 0 63.5 -25.5t26.5 -62.5q0 -35 -26.5 -60.5t-63.5 -25.5q-35 0 -61.5 25.5 t-26.5 60.5z" />
<glyph unicode="&#xf0;" horiz-adv-x="1161" d="M115 440q0 199 131 330q133 133 319 133q104 0 183 -39l-256 353l-316 -150l-39 80l303 143l-151 209l80 57l163 -223l314 148l39 -78l-301 -141l250 -342q70 -96 114 -162q40 -62 69.5 -145t29.5 -162q0 -199 -134 -336q-132 -135 -333 -135t-334 133q-131 131 -131 327 zM221 440q0 -154 103 -260q101 -104 256 -104t256 104q102 105 102 262q0 156 -104 260q-102 105 -256 105q-152 0 -254 -105q-103 -106 -103 -262z" />
<glyph unicode="&#xf1;" horiz-adv-x="1142" d="M190 0v989h99v-133q109 154 315 154q168 0 265.5 -105.5t97.5 -279.5v-625h-103v618q0 132 -75 213.5t-201 81.5q-129 0 -213 -84q-82 -82 -82 -211v-618h-103zM295 1309q0 81 38.5 132.5t108.5 51.5q69 0 133 -61l52 -52q49 -49 88 -49q63 0 63 94v39h90q2 -10 2 -45 q0 -81 -36 -131q-36 -55 -108.5 -54t-133.5 62l-53 52q-49 49 -86 49q-66 0 -66 -92v-41h-90q-2 10 -2 45z" />
<glyph unicode="&#xf2;" horiz-adv-x="1253" d="M115 496q0 217 147 364q150 150 365 150q212 0 362 -150q150 -147 150 -364t-150 -367q-149 -149 -364 -149q-214 0 -363 149q-147 150 -147 367zM221 494q0 -178 115 -299q116 -119 289 -119q170 0 288 121q119 119 119 297q0 179 -117 299t-288 120q-174 0 -291 -120 q-115 -121 -115 -299zM358 1579v18h127l187 -442h-82z" />
<glyph unicode="&#xf3;" horiz-adv-x="1253" d="M115 496q0 217 147 364q150 150 365 150q212 0 362 -150q150 -147 150 -364t-150 -367q-149 -149 -364 -149q-214 0 -363 149q-147 150 -147 367zM221 494q0 -178 115 -299q116 -119 289 -119q170 0 288 121q119 119 119 297q0 179 -117 299t-288 120q-174 0 -291 -120 q-115 -121 -115 -299zM588 1155l186 442h127v-18l-231 -424h-82z" />
<glyph unicode="&#xf4;" horiz-adv-x="1253" d="M115 496q0 217 147 364q150 150 365 150q212 0 362 -150q150 -147 150 -364t-150 -367q-149 -149 -364 -149q-214 0 -363 149q-147 150 -147 367zM221 494q0 -178 115 -299q116 -119 289 -119q170 0 288 121q119 119 119 297q0 179 -117 299t-288 120q-174 0 -291 -120 q-115 -121 -115 -299zM319 1155l279 442h59l279 -442h-84l-223 311l-226 -311h-84z" />
<glyph unicode="&#xf5;" horiz-adv-x="1253" d="M115 496q0 217 147 364q150 150 365 150q212 0 362 -150q150 -147 150 -364t-150 -367q-149 -149 -364 -149q-214 0 -363 149q-147 150 -147 367zM221 494q0 -178 115 -299q116 -119 289 -119q170 0 288 121q119 119 119 297q0 179 -117 299t-288 120q-174 0 -291 -120 q-115 -121 -115 -299zM340 1309q0 81 38.5 132.5t108.5 51.5t134 -61l51 -52q49 -49 88 -49q63 0 63 94v39h90q2 -10 2 -45q0 -81 -36 -131q-36 -55 -108.5 -54t-133.5 62l-53 52q-49 49 -86 49q-66 0 -66 -92v-41h-90q-2 10 -2 45z" />
<glyph unicode="&#xf6;" horiz-adv-x="1253" d="M115 496q0 217 147 364q150 150 365 150q212 0 362 -150q150 -147 150 -364t-150 -367q-149 -149 -364 -149q-214 0 -363 149q-147 150 -147 367zM221 494q0 -178 115 -299q116 -119 289 -119q170 0 288 121q119 119 119 297q0 179 -117 299t-288 120q-174 0 -291 -120 q-115 -121 -115 -299zM332 1370q0 36 26 62t62 26q37 0 62.5 -25.5t25.5 -62.5q0 -35 -25.5 -60.5t-62.5 -25.5q-35 0 -61.5 25.5t-26.5 60.5zM741 1370q0 36 26 62t62 26q37 0 64 -26t27 -62q0 -35 -27 -60.5t-64 -25.5q-35 0 -61.5 25.5t-26.5 60.5z" />
<glyph unicode="&#xf7;" horiz-adv-x="1146" d="M127 592v92h891v-92h-891zM479 280q0 37 25 62q26 25 63.5 25t63.5 -25t26 -62t-26 -63q-26 -25 -63.5 -25t-63.5 25q-25 26 -25 63zM479 991q0 37 25.5 62.5t62.5 25.5t63.5 -25.5t26.5 -62.5q0 -35 -26.5 -60.5t-63.5 -25.5t-62.5 25.5t-25.5 60.5z" />
<glyph unicode="&#xf8;" horiz-adv-x="1280" d="M117 39l127 127q-117 138 -117 328q0 217 149 366q150 150 363 150q185 0 330 -121l125 127l67 -66l-127 -127q117 -144 117 -329q0 -213 -152 -365q-149 -149 -362 -149q-192 0 -328 118l-125 -127zM229 494q0 -147 84 -263l590 590q-120 97 -264 97q-176 0 -293 -123 q-117 -120 -117 -301zM375 166q110 -94 262 -94q172 0 293 121q119 122 119 301q0 146 -84 262z" />
<glyph unicode="&#xf9;" horiz-adv-x="1128" d="M176 375v614h103v-618q0 -133 80.5 -214t205.5 -81q124 0 204.5 81t80.5 214v618h102v-614q0 -180 -110 -287q-111 -108 -277 -108q-167 0 -278 108t-111 287zM295 1579v18h127l186 -442h-82z" />
<glyph unicode="&#xfa;" horiz-adv-x="1128" d="M176 375v614h103v-618q0 -133 80.5 -214t205.5 -81q124 0 204.5 81t80.5 214v618h102v-614q0 -180 -110 -287q-111 -108 -277 -108q-167 0 -278 108t-111 287zM524 1155l187 442h127v-18l-232 -424h-82z" />
<glyph unicode="&#xfb;" horiz-adv-x="1128" d="M176 375v614h103v-618q0 -133 80.5 -214t205.5 -81q124 0 204.5 81t80.5 214v618h102v-614q0 -180 -110 -287q-111 -108 -277 -108q-167 0 -278 108t-111 287zM256 1155l279 442h59l278 -442h-84l-223 311l-225 -311h-84z" />
<glyph unicode="&#xfc;" horiz-adv-x="1128" d="M176 375v614h103v-618q0 -133 80.5 -214t205.5 -81q124 0 204.5 81t80.5 214v618h102v-614q0 -180 -110 -287q-111 -108 -277 -108q-167 0 -278 108t-111 287zM270 1370q0 36 26 62t62 26q37 0 62.5 -25.5t25.5 -62.5q0 -35 -25.5 -60.5t-62.5 -25.5q-35 0 -61.5 25.5 t-26.5 60.5zM680 1370q0 36 26 62t62 26q37 0 63.5 -25.5t26.5 -62.5q0 -35 -26.5 -60.5t-63.5 -25.5q-35 0 -61.5 25.5t-26.5 60.5z" />
<glyph unicode="&#xfd;" horiz-adv-x="1079" d="M66 989h112l367 -850l358 850h111l-494 -1151q-99 -227 -309 -227q-71 0 -139 18v90q60 -14 125 -14q155 0 229 170l63 145zM498 1155l186 442h127v-18l-231 -424h-82z" />
<glyph unicode="&#xfe;" horiz-adv-x="1298" d="M190 -369v1905h103v-737q57 98 164 154.5t235 56.5q209 0 350 -150q142 -148 142 -364t-142 -367q-140 -149 -350 -149q-126 0 -234.5 56.5t-164.5 153.5v-559h-103zM293 496q0 -207 113 -314q112 -106 276 -106q173 0 283 119q112 118 112 299t-112 299 q-111 120 -283 120q-164 0 -276 -106q-113 -107 -113 -311z" />
<glyph unicode="&#xff;" horiz-adv-x="1079" d="M66 989h112l367 -850l358 850h111l-494 -1151q-99 -227 -309 -227q-71 0 -139 18v90q60 -14 125 -14q155 0 229 170l63 145zM244 1370q0 36 26 62t62 26q37 0 62.5 -25.5t25.5 -62.5q0 -35 -25.5 -60.5t-62.5 -25.5q-35 0 -61.5 25.5t-26.5 60.5zM653 1370q0 36 26 62 t62 26q37 0 63.5 -25.5t26.5 -62.5q0 -35 -26.5 -60.5t-63.5 -25.5q-35 0 -61.5 25.5t-26.5 60.5z" />
<glyph unicode="&#x152;" horiz-adv-x="2336" d="M109 676q0 295 200 495q201 201 492 201q191 0 346 -94q158 -93 235 -250v324h848v-97h-741v-479h575v-92h-575v-588h766v-96h-873v324q-76 -156 -235 -252q-157 -92 -348 -92q-292 0 -492 200q-198 201 -198 496zM221 678q0 -253 164 -426q166 -172 416 -172t416 172 q165 171 165 426q0 256 -165 424q-166 172 -416 172q-248 0 -414 -172q-166 -169 -166 -424z" />
<glyph unicode="&#x153;" horiz-adv-x="2048" d="M115 494q0 216 147 366q150 150 363 150q147 0 263 -76.5t173 -208.5q61 131 176 208t256 77q182 0 311 -123q129 -120 129 -318q0 -69 -8 -100h-809q9 -176 115 -285q108 -108 274 -108q200 0 328 155l68 -67q-159 -187 -398 -187q-146 0 -263.5 77.5t-178.5 209.5 q-58 -130 -175 -207t-263 -77q-215 0 -361 149q-147 150 -147 365zM221 494q0 -176 115 -297t287 -121q173 0 280 119q109 121 109 299t-109 299q-108 120 -278 120q-172 0 -289 -120q-115 -121 -115 -299zM1118 563h709q3 162 -96 254q-101 96 -244 96q-147 0 -248 -98 q-100 -97 -121 -252z" />
<glyph unicode="&#x178;" horiz-adv-x="1255" d="M104 1352h117l406 -678l407 678h117l-471 -779v-573h-107v573zM303 1655q0 37 25.5 61.5t62.5 24.5t62.5 -24.5t25.5 -61.5t-25.5 -62.5t-62.5 -25.5q-36 0 -62 26t-26 62zM766 1653q0 36 26 62t62 26q37 0 62.5 -25.5t25.5 -62.5q0 -35 -25.5 -60.5t-62.5 -25.5 q-35 0 -61.5 25.5t-26.5 60.5z" />
<glyph unicode="&#x2c6;" horiz-adv-x="739" d="M61 1155l279 442h59l279 -442h-84l-223 311l-226 -311h-84z" />
<glyph unicode="&#x2dc;" horiz-adv-x="698" d="M61 1309q0 81 39 132.5t109 51.5q69 0 133 -61l51 -52q49 -49 88 -49q64 0 64 94v39h90q2 -10 2 -45q0 -79 -37 -131q-36 -55 -108.5 -54t-133.5 62l-53 52q-49 49 -86 49q-65 0 -65 -92v-41h-91q-2 10 -2 45z" />
<glyph unicode="&#x2000;" horiz-adv-x="934" />
<glyph unicode="&#x2001;" horiz-adv-x="1868" />
<glyph unicode="&#x2002;" horiz-adv-x="934" />
<glyph unicode="&#x2003;" horiz-adv-x="1868" />
<glyph unicode="&#x2004;" horiz-adv-x="622" />
<glyph unicode="&#x2005;" horiz-adv-x="467" />
<glyph unicode="&#x2006;" horiz-adv-x="311" />
<glyph unicode="&#x2007;" horiz-adv-x="311" />
<glyph unicode="&#x2008;" horiz-adv-x="233" />
<glyph unicode="&#x2009;" horiz-adv-x="373" />
<glyph unicode="&#x200a;" horiz-adv-x="103" />
<glyph unicode="&#x2010;" horiz-adv-x="702" d="M117 592v90h467v-90h-467z" />
<glyph unicode="&#x2011;" horiz-adv-x="702" d="M117 592v90h467v-90h-467z" />
<glyph unicode="&#x2012;" horiz-adv-x="702" d="M117 592v90h467v-90h-467z" />
<glyph unicode="&#x2013;" horiz-adv-x="1030" d="M96 592v90h836v-90h-836z" />
<glyph unicode="&#x2014;" horiz-adv-x="2048" d="M102 592v90h1844v-90h-1844z" />
<glyph unicode="&#x2018;" horiz-adv-x="557" d="M193 846l75 506h84l-35 -506h-124z" />
<glyph unicode="&#x2019;" horiz-adv-x="557" d="M205 846l35 506h125l-76 -506h-84z" />
<glyph unicode="&#x201a;" horiz-adv-x="557" d="M205 -354l35 508h125l-76 -508h-84z" />
<glyph unicode="&#x201c;" horiz-adv-x="880" d="M193 846l75 506h84l-35 -506h-124zM516 846l78 506h84l-35 -506h-127z" />
<glyph unicode="&#x201d;" horiz-adv-x="880" d="M205 846l35 506h125l-76 -506h-84zM530 846l35 506h125l-76 -506h-84z" />
<glyph unicode="&#x201e;" horiz-adv-x="880" d="M205 -354l35 508h125l-76 -508h-84zM530 -354l35 508h125l-76 -508h-84z" />
<glyph unicode="&#x2022;" horiz-adv-x="727" d="M123 543q0 103 72 172q73 67 169 67t168 -67q72 -69 72 -172t-72 -172q-72 -66 -168 -66t-169 66q-72 69 -72 172z" />
<glyph unicode="&#x2026;" horiz-adv-x="1552" d="M176 78q0 44 28 73t70 29q44 0 73.5 -28t29.5 -74q0 -42 -30 -70t-73 -28q-39 0 -68.5 28t-29.5 70zM676 78q-3 63 49 89t104 0t50 -89q0 -42 -30.5 -70t-72.5 -28t-71 28t-29 70zM1176 78q-3 63 48.5 89t103.5 0t50 -89q0 -42 -30 -70t-72 -28t-71 28t-29 70z" />
<glyph unicode="&#x202f;" horiz-adv-x="373" />
<glyph unicode="&#x2039;" horiz-adv-x="593" d="M88 535v34l346 367l70 -62l-295 -321l295 -326l-70 -59z" />
<glyph unicode="&#x203a;" horiz-adv-x="593" d="M90 227l295 326l-295 321l70 62l346 -367v-34l-346 -367z" />
<glyph unicode="&#x205f;" horiz-adv-x="467" />
<glyph unicode="&#x20ac;" horiz-adv-x="1398" d="M14 469v94h209q-8 44 -8 113q0 52 6 104h-203v92h220q53 226 215 363t393 137q292 0 442 -205l-76 -63q-129 170 -362 170q-188 0 -319 -107.5t-181 -294.5h654l-25 -92h-645q-6 -52 -6 -104q0 -58 6 -113h584l-25 -94h-539q50 -181 180 -285t316 -104q234 0 362 168 l76 -64q-149 -204 -442 -204q-226 0 -391 133q-159 135 -215 356h-226z" />
<glyph unicode="&#x2122;" horiz-adv-x="1941" d="M29 1266v86h753v-86h-329v-834h-95v834h-329zM950 432v934h35l385 -537l383 537h35v-934h-96v696l-306 -428h-34l-305 428v-696h-97z" />
<glyph unicode="&#x25fc;" horiz-adv-x="993" d="M0 0v993h993v-993h-993z" />
</font>
</defs>
</svg>
